<svg width="24" height="24" viewBox="0 0 24 24" fill="none" xmlns="http://www.w3.org/2000/svg">
<path d="M0 12C0 18.6274 5.37258 24 12 24C18.6274 24 24 18.6274 24 12C24 5.37258 18.6274 0 12 0C5.37258 0 0 5.37258 0 12Z" fill="#7B1FA1"/>
<path d="M12.8102 8.97354C12.5524 8.9259 12.3155 9.09046 12.2665 9.34216C12.2174 9.59386 12.3824 9.83961 12.6333 9.88887C13.3885 10.0361 13.9716 10.6207 14.1195 11.3785V11.3791C14.1615 11.5972 14.3536 11.7558 14.5747 11.7558C14.6044 11.7558 14.6341 11.7531 14.6643 11.7477C14.9151 11.6973 15.0802 11.4521 15.0311 11.1999C14.8105 10.068 13.9393 9.19385 12.8102 8.97354Z" fill="#F7F6F6"/>
<path d="M12.7762 7.08755C12.6554 7.07023 12.534 7.10595 12.4375 7.18282C12.3382 7.26076 12.2762 7.37335 12.2627 7.49947C12.2341 7.75442 12.4181 7.98501 12.6727 8.0137C14.4286 8.20965 15.7934 9.5775 15.9908 11.3389C16.0172 11.5749 16.2152 11.753 16.4515 11.753C16.4693 11.753 16.4866 11.7519 16.5044 11.7497C16.6279 11.7362 16.7379 11.675 16.8156 11.5776C16.8928 11.4802 16.9278 11.3589 16.9138 11.2349C16.6678 9.03729 14.9669 7.33167 12.7762 7.08755Z" fill="#F7F6F6"/>
<path fill-rule="evenodd" clip-rule="evenodd" d="M10.9752 13.0267C13.136 15.1869 13.6261 12.6878 15.0019 14.0626C16.3282 15.3886 17.0906 15.6542 15.4101 17.3342C15.1996 17.5034 13.8622 19.5386 9.16217 14.8398C4.46154 10.1405 6.49553 8.80174 6.66474 8.59131C8.34927 6.90667 8.61035 7.67342 9.93669 8.99939C11.3125 10.3748 8.81445 10.8666 10.9752 13.0267Z" fill="#F7F6F6"/>
</svg>
